<svg xmlns="http://www.w3.org/2000/svg" viewBox="0 0 64 64">
  <defs>
    <linearGradient id="boatGrad" x1="0" x2="0" y1="0" y2="1">
      <stop offset="0%" stop-color="#d946ef"/>
      <stop offset="100%" stop-color="#c026d3"/>
    </linearGradient>
  </defs>
  <!-- Boat hull -->
  <path d="M8 40 Q32 20 56 40 L56 48 Q32 28 8 48 Z" fill="url(#boatGrad)"/>
  <!-- Deck -->
  <path d="M12 36 Q32 24 52 36 L52 40 Q32 28 12 40 Z" fill="#a855f7"/>
  <!-- Mast -->
  <line x1="32" y1="36" x2="32" y2="16" stroke="#6b7280" stroke-width="2"/>
  <!-- Sail -->
  <path d="M32 20 Q48 24 32 28" fill="#dbeafe" opacity="0.8"/>
  <!-- Water waves -->
  <path d="M4 48 Q8 46 12 48 Q16 50 20 48 Q24 46 28 48 Q32 50 36 48 Q40 46 44 48 Q48 50 52 48 Q56 46 60 48" stroke="#3b82f6" stroke-width="1" fill="none"/>
</svg>
