<svg xmlns="http://www.w3.org/2000/svg" viewBox="0 0 64 64">
  <defs>
    <linearGradient id="fireGrad" x1="0" x2="0" y1="0" y2="1">
      <stop offset="0%" stop-color="#d946ef"/>
      <stop offset="100%" stop-color="#c026d3"/>
    </linearGradient>
  </defs>
  <!-- Fire truck body -->
  <rect x="8" y="20" width="40" height="24" rx="4" fill="url(#fireGrad)"/>
  <!-- Front -->
  <rect x="48" y="24" width="8" height="16" rx="2" fill="url(#fireGrad)"/>
  <!-- Wheels -->
  <circle cx="20" cy="48" r="6" fill="#374151"/>
  <circle cx="36" cy="48" r="6" fill="#374151"/>
  <!-- Ladder -->
  <rect x="12" y="12" width="4" height="20" fill="#6b7280"/>
  <rect x="10" y="12" width="8" height="2" fill="#6b7280"/>
  <!-- Windows -->
  <rect x="12" y="24" width="12" height="8" fill="#dbeafe" opacity="0.8"/>
  <rect x="28" y="24" width="12" height="8" fill="#dbeafe" opacity="0.8"/>
  <!-- Water hose -->
  <path d="M16 16 Q20 20 24 16" stroke="#3b82f6" stroke-width="2" fill="none"/>
</svg>
  <defs>
    <linearGradient id="fireGrad" x1="0" x2="0" y1="0" y2="1">
      <stop offset="0%" stop-color="#d946ef"/>
      <stop offset="100%" stop-color="#c026d3"/>
    </linearGradient>
  </defs>
  <!-- Fire truck body -->
  <rect x="8" y="20" width="40" height="24" rx="4" fill="url(#fireGrad)"/>
  <!-- Front -->
  <rect x="48" y="24" width="8" height="16" rx="2" fill="url(#fireGrad)"/>
  <!-- Wheels -->
  <circle cx="20" cy="48" r="6" fill="#374151"/>
  <circle cx="36" cy="48" r="6" fill="#374151"/>
  <!-- Ladder -->
  <rect x="12" y="12" width="4" height="20" fill="#6b7280"/>
  <rect x="10" y="12" width="8" height="2" fill="#6b7280"/>
  <!-- Windows -->
  <rect x="12" y="24" width="12" height="8" fill="#dbeafe" opacity="0.8"/>
  <rect x="28" y="24" width="12" height="8" fill="#dbeafe" opacity="0.8"/>
  <!-- Water hose -->
  <path d="M16 16 Q20 20 24 16" stroke="#3b82f6" stroke-width="2" fill="none"/>
</svg>
