<svg xmlns="http://www.w3.org/2000/svg" viewBox="0 0 128 128">
  <defs>
    <linearGradient id="body" x1="0" x2="0" y1="0" y2="1">
      <stop offset="0%" stop-color="#ffffff"/>
      <stop offset="100%" stop-color="#dbe3ea"/>
    </linearGradient>
    <linearGradient id="shadow" x1="0" x2="0" y1="0" y2="1">
      <stop offset="0%" stop-color="#a7b3c2"/>
      <stop offset="100%" stop-color="#8a97a6"/>
    </linearGradient>
    <radialGradient id="glow" cx="0.5" cy="0.45" r="0.6">
      <stop offset="0%" stop-color="#1e293b"/>
      <stop offset="100%" stop-color="#0b1422"/>
    </radialGradient>
  </defs>
  <g fill="none" stroke="none" stroke-width="1" stroke-linecap="round" stroke-linejoin="round">
    <!-- Head -->
    <rect x="24" y="16" width="80" height="52" rx="24" fill="url(#body)"/>
    <rect x="34" y="24" width="60" height="36" rx="16" fill="url(#glow)"/>
    <!-- Eyes & mouth -->
    <circle cx="54" cy="40" r="6" fill="#60f0ff" opacity="0.9"/>
    <circle cx="74" cy="40" r="6" fill="#60f0ff" opacity="0.9"/>
    <path d="M56 48c3 4 13 4 16 0" fill="none" stroke="#60f0ff" stroke-width="3" stroke-linecap="round"/>
    <!-- Antenna nub -->
    <rect x="56" y="8" width="16" height="10" rx="5" fill="url(#shadow)"/>
    <!-- Neck -->
    <rect x="50" y="68" width="28" height="10" rx="5" fill="url(#shadow)"/>
    <!-- Torso -->
    <ellipse cx="64" cy="100" rx="34" ry="26" fill="url(#body)"/>
    <path d="M36 100c8 10 48 10 56 0" fill="none" stroke="#c9d3de" stroke-width="3"/>
    <!-- Arms -->
    <ellipse cx="28" cy="92" rx="10" ry="20" fill="url(#body)"/>
    <ellipse cx="100" cy="92" rx="10" ry="20" fill="url(#body)"/>
    <!-- Subtle shadow -->
    <ellipse cx="64" cy="120" rx="18" ry="4" fill="#000" opacity="0.15"/>
  </g>
</svg>
