<svg xmlns="http://www.w3.org/2000/svg" viewBox="0 0 64 64">
  <defs>
    <linearGradient id="ambulanceGrad" x1="0" x2="0" y1="0" y2="1">
      <stop offset="0%" stop-color="#06b6d4"/>
      <stop offset="100%" stop-color="#0891b2"/>
    </linearGradient>
  </defs>
  <!-- Ambulance body -->
  <rect x="8" y="20" width="48" height="24" rx="4" fill="url(#ambulanceGrad)"/>
  <!-- Front -->
  <rect x="56" y="24" width="8" height="16" rx="2" fill="url(#ambulanceGrad)"/>
  <!-- Wheels -->
  <circle cx="20" cy="48" r="6" fill="#374151"/>
  <circle cx="44" cy="48" r="6" fill="#374151"/>
  <!-- Cross symbol -->
  <rect x="28" y="28" width="8" height="8" fill="#ffffff"/>
  <rect x="30" y="26" width="4" height="12" fill="#ffffff"/>
  <rect x="26" y="30" width="12" height="4" fill="#ffffff"/>
  <!-- Windows -->
  <rect x="12" y="24" width="12" height="8" fill="#dbeafe" opacity="0.8"/>
  <rect x="40" y="24" width="12" height="8" fill="#dbeafe" opacity="0.8"/>
</svg>
  <defs>
    <linearGradient id="ambulanceGrad" x1="0" x2="0" y1="0" y2="1">
      <stop offset="0%" stop-color="#06b6d4"/>
      <stop offset="100%" stop-color="#0891b2"/>
    </linearGradient>
  </defs>
  <!-- Ambulance body -->
  <rect x="8" y="20" width="48" height="24" rx="4" fill="url(#ambulanceGrad)"/>
  <!-- Front -->
  <rect x="56" y="24" width="8" height="16" rx="2" fill="url(#ambulanceGrad)"/>
  <!-- Wheels -->
  <circle cx="20" cy="48" r="6" fill="#374151"/>
  <circle cx="44" cy="48" r="6" fill="#374151"/>
  <!-- Cross symbol -->
  <rect x="28" y="28" width="8" height="8" fill="#ffffff"/>
  <rect x="30" y="26" width="4" height="12" fill="#ffffff"/>
  <rect x="26" y="30" width="12" height="4" fill="#ffffff"/>
  <!-- Windows -->
  <rect x="12" y="24" width="12" height="8" fill="#dbeafe" opacity="0.8"/>
  <rect x="40" y="24" width="12" height="8" fill="#dbeafe" opacity="0.8"/>
</svg>
